<svg width="160" height="32" viewBox="0 0 160 32" fill="none" xmlns="http://www.w3.org/2000/svg">
<path d="M3 5H7.72053V22.6805H18.1523V26.6948H3V5Z" fill="black"/>
<path d="M27.5642 10.5491C32.4596 10.5491 35.6066 13.8255 35.6066 18.8433C35.6066 23.8316 32.4596 27.108 27.5642 27.108C22.698 27.108 19.551 23.8316 19.551 18.8433C19.551 13.855 22.698 10.5491 27.5642 10.5491ZM27.5642 23.8612C30.4781 23.8612 31.3523 21.3522 31.3523 18.8433C31.3523 16.3344 30.4781 13.796 27.5642 13.796C24.6795 13.796 23.8053 16.3049 23.8053 18.8433C23.8344 21.3522 24.6795 23.8612 27.5642 23.8612Z" fill="black"/>
<path d="M48.6318 16.5115C48.3696 14.7405 47.2623 13.796 45.4848 13.796C42.7457 13.796 41.8424 16.6001 41.8424 18.9024C41.8424 21.1456 42.7166 23.8612 45.3682 23.8612C47.3497 23.8612 48.4861 22.5919 48.7484 20.6734H52.857C52.3616 24.8352 49.506 27.1375 45.4265 27.1375C40.7351 27.1375 37.5881 23.8021 37.5881 19.0795C37.5881 14.1797 40.4729 10.5787 45.5139 10.5787C49.1854 10.5787 52.5364 12.5268 52.7987 16.541H48.6318V16.5115Z" fill="black"/>
<path d="M55.3921 5H59.6464V16.6296L65.0079 10.9919H70.049L64.192 16.7476L70.7192 26.6948H65.5616L61.2781 19.6698L59.6464 21.2932V26.6948H55.3921V5Z" fill="black"/>
<path d="M72.0596 10.9919H76.1099V13.1761H76.1973C77.2755 11.4051 79.1404 10.5491 80.947 10.5491C85.4636 10.5491 86.6291 13.1466 86.6291 17.0133V26.6653H82.3748V17.8103C82.3748 15.2128 81.6172 13.9436 79.6358 13.9436C77.3338 13.9436 76.343 15.2423 76.343 18.4301V26.6653H72.0596V10.9919Z" fill="black"/>
<path d="M89.2808 5H94.0013V22.6805H104.433V26.6948H89.2808V5Z" fill="black"/>
<path d="M113.845 10.5491C118.74 10.5491 121.887 13.855 121.887 18.8728C121.887 23.8612 118.74 27.1375 113.845 27.1375C108.979 27.1375 105.832 23.8612 105.832 18.8728C105.832 13.855 109.008 10.5491 113.845 10.5491ZM113.845 23.8612C116.759 23.8612 117.633 21.3522 117.633 18.8433C117.633 16.3344 116.759 13.796 113.845 13.796C110.96 13.796 110.086 16.3049 110.086 18.8433C110.115 21.3522 110.96 23.8612 113.845 23.8612Z" fill="black"/>
<path d="M134.913 16.5115C134.65 14.7405 133.543 13.796 131.766 13.796C129.026 13.796 128.123 16.6001 128.123 18.9024C128.123 21.1456 128.997 23.8612 131.649 23.8612C133.63 23.8612 134.767 22.5919 135.029 20.6734H139.138C138.642 24.8352 135.787 27.1375 131.707 27.1375C127.016 27.1375 123.869 23.8021 123.869 19.0795C123.869 14.1797 126.754 10.5787 131.795 10.5787C135.466 10.5787 138.817 12.5268 139.079 16.541H134.913V16.5115Z" fill="black"/>
<path d="M141.673 5H145.927V16.6296L151.289 10.9919H156.33L150.473 16.7476L157 26.6948H151.842L147.588 19.6698L145.927 21.2932V26.6948H141.673V5Z" fill="black"/>
</svg>
