<svg width="110" height="20" viewBox="0 0 110 20" fill="none" xmlns="http://www.w3.org/2000/svg">
<path d="M3 2H6.18789V14.0816H13.2327V16.8247H3V2Z" fill="black"/>
<path d="M19.5888 5.7919C22.8948 5.7919 25.02 8.03074 25.02 11.4596C25.02 14.8683 22.8948 17.1071 19.5888 17.1071C16.3025 17.1071 14.1773 14.8683 14.1773 11.4596C14.1773 8.05091 16.3025 5.7919 19.5888 5.7919ZM19.5888 14.8884C21.5567 14.8884 22.147 13.174 22.147 11.4596C22.147 9.74516 21.5567 8.01057 19.5888 8.01057C17.6407 8.01057 17.0503 9.72499 17.0503 11.4596C17.07 13.174 17.6407 14.8884 19.5888 14.8884Z" fill="black"/>
<path d="M33.8163 9.86618C33.6392 8.656 32.8914 8.01057 31.691 8.01057C29.8412 8.01057 29.2312 9.92669 29.2312 11.4999C29.2312 13.0328 29.8216 14.8884 31.6123 14.8884C32.9504 14.8884 33.7179 14.0211 33.895 12.7101H36.6696C36.3351 15.554 34.4066 17.1273 31.6517 17.1273C28.4834 17.1273 26.3582 14.8481 26.3582 11.6209C26.3582 8.27278 28.3063 5.81207 31.7107 5.81207C34.1902 5.81207 36.4532 7.14327 36.6303 9.88635H33.8163V9.86618Z" fill="black"/>
<path d="M38.3816 2H41.2547V9.94686L44.8755 6.09445H48.2798L44.3245 10.0275L48.7324 16.8247H45.2494L42.3567 12.0243L41.2547 13.1337V16.8247H38.3816V2Z" fill="black"/>
<path d="M49.6376 6.09445H52.3729V7.587H52.432C53.1601 6.37682 54.4195 5.7919 55.6395 5.7919C58.6897 5.7919 59.4768 7.56683 59.4768 10.2091V16.8046H56.6038V10.7536C56.6038 8.97871 56.0921 8.11142 54.754 8.11142C53.1994 8.11142 52.5304 8.99888 52.5304 11.1772V16.8046H49.6376V6.09445Z" fill="black"/>
<path d="M61.2675 2H64.4554V14.0816H71.5003V16.8247H61.2675V2Z" fill="black"/>
<path d="M77.8564 5.7919C81.1623 5.7919 83.2876 8.05091 83.2876 11.4798C83.2876 14.8884 81.1623 17.1273 77.8564 17.1273C74.5701 17.1273 72.4448 14.8884 72.4448 11.4798C72.4448 8.05091 74.5898 5.7919 77.8564 5.7919ZM77.8564 14.8884C79.8242 14.8884 80.4146 13.174 80.4146 11.4596C80.4146 9.74516 79.8242 8.01057 77.8564 8.01057C75.9082 8.01057 75.3179 9.72499 75.3179 11.4596C75.3375 13.174 75.9082 14.8884 77.8564 14.8884Z" fill="black"/>
<path d="M92.0838 9.86618C91.9067 8.656 91.1589 8.01057 89.9586 8.01057C88.1088 8.01057 87.4988 9.92669 87.4988 11.4999C87.4988 13.0328 88.0891 14.8884 89.8798 14.8884C91.218 14.8884 91.9854 14.0211 92.1625 12.7101H94.9372C94.6027 15.554 92.6742 17.1273 89.9192 17.1273C86.751 17.1273 84.6257 14.8481 84.6257 11.6209C84.6257 8.27278 86.5739 5.81207 89.9782 5.81207C92.4577 5.81207 94.7207 7.14327 94.8978 9.88635H92.0838V9.86618Z" fill="black"/>
<path d="M96.6492 2H99.5222V9.94686L103.143 6.09445H106.547L102.592 10.0275L107 16.8247H103.517L100.644 12.0243L99.5222 13.1337V16.8247H96.6492V2Z" fill="black"/>
</svg>
